<?xml version="1.0" encoding="UTF-8" standalone="no"?>
<!DOCTYPE svg PUBLIC "-//W3C//DTD SVG 1.1//EN"
"http://www.w3.org/Graphics/SVG/1.1/DTD/svg11.dtd">


<!-- Page 1 -->
<svg x="0" y="0" width="30" height="21" viewBox="0 0 30 21" version="1.1" xmlns="http://www.w3.org/2000/svg" xmlns:xlink="http://www.w3.org/1999/xlink"
style="display: block;margin-left: auto;margin-right: auto;">
<defs>
<clipPath id="c_1"><path d="M0,0H30V21H0Z" /></clipPath>
<clipPath id="c0_1"><path d="M1.2,7.6C.3,7.6,-.4,6.5,.4,5.7C4.4,1.9,9.8,0,15.2,0c5.4,0,10.9,1.9,15,5.7c.8,.8,.1,1.9,-.9,1.9c-.2,0,-.5,-.1,-.8,-.3C24.9,3.9,20,2.2,15.2,2.2C10.4,2.2,5.6,3.9,2,7.3c-.2,.2,-.5,.3,-.8,.3Z" /></clipPath>
<clipPath id="c1_1"><path d="M4.3,10.7C3.4,10.7,2.6,9.6,3.4,8.9C6.7,6,11,4.6,15.3,4.6c4.3,0,8.6,1.4,11.8,4.3c.9,.7,.1,1.8,-.8,1.8c-.3,0,-.6,-.1,-.8,-.3C22.7,7.9,19,6.7,15.3,6.7C11.6,6.7,7.9,7.9,5.1,10.4c-.3,.2,-.5,.3,-.8,.3Z" /></clipPath>
<clipPath id="c2_1"><path d="M7.3,13.8c-.8,0,-1.7,-1,-.9,-1.7c2.5,-2,5.7,-2.9,8.9,-2.9c3.2,0,6.4,.9,8.8,2.9c.8,.7,0,1.7,-.9,1.7c-.3,0,-.6,-.1,-.8,-.4c-2,-1.6,-4.5,-2.3,-7.1,-2.3c-2.6,0,-5.2,.7,-7.2,2.3c-.2,.3,-.5,.4,-.8,.4Z" /></clipPath>
<clipPath id="c3_1"><path d="M20.1,16.8c-.2,0,-.5,-.1,-.7,-.3C18.3,15.3,16.8,14.8,15.3,14.8c-1.4,0,-2.9,.5,-4,1.7c-.3,.2,-.6,.3,-.8,.3c-1,0,-1.9,-1.3,-1,-2.1c1.6,-1.7,3.7,-2.5,5.8,-2.5c2.1,0,4.2,.8,5.7,2.5c.9,.8,.1,2.1,-.9,2.1Z" /></clipPath>
<clipPath id="c4_1"><path d="M16,21.4c-1.2,0,-2.2,-1,-2.2,-2.4c0,-1.2,1,-2.2,2.2,-2.2c1.3,0,2.3,1,2.3,2.2c0,1.4,-1,2.4,-2.3,2.4Z" /></clipPath>

<style type="text/css"><![CDATA[

.g0_1{
fill: #4CD964;
}

]]></style>

</defs>
<g clip-path="url(#c_1)">
<path d="M0,0
L0,21
L30,21
L30,0 Z " 
fill="#FFFFFF" stroke="none" />
<g clip-path="url(#c0_1)">
<path d="M-7.5,-7.5H38.2V15.3H-7.5Z" class="g0_1" />
</g>
<g clip-path="url(#c1_1)">
<path d="M-4.5,-3H35.1V18.3H-4.5Z" class="g0_1" />
</g>
<g clip-path="url(#c2_1)">
<path d="M-1.4,1.5H32.1V21.4H-1.4Z" class="g0_1" />
</g>
<g clip-path="url(#c3_1)">
<path d="M1.5,4.6H29V24.4H1.5Z" class="g0_1" />
</g>
<g clip-path="url(#c4_1)">
<path d="M6.1,9.2H26V29H6.1Z" class="g0_1" />
</g>

</g>
</svg>
